# xmcd
#
# Track frame offsets: 
#        182
#        12007
#        23895
#        35032
#        47457
#        59495
#        71492
#        81885
#        95197
#        107710
#        119835
#        133935
#        144860
#        157292
#        168380
#        177567
#        191280
#        204505
#        216467
#        228717
#        246255
#        261255
#        275767
#        291955
#
# Disc length: 4196 seconds
#
# Revision: 1
# Processed by: cddbd v1.5.1PL0 Copyright (c) Steve Scherf et al.
# Submitted via: ExactAudioCopy v0.90b4
#
DISCID=7e106218
DTITLE=The Platters - AllThe Hits and More [CD1]
DYEAR=1995
DGENRE=Oldies
TTITLE0=Only You (And You Alone)
TTITLE1=The Great Pretender
TTITLE2=(You've Got) The Magic Touch
TTITLE3=My Prayer
TTITLE4=Heaven On Earth
TTITLE5=You'll Never Never Know
TTITLE6=One In A Million
TTITLE7=I'm Sorry
TTITLE8=Twilight Time
TTITLE9=Smoke Gets In Your Eyes
TTITLE10=Harbor Lights
TTITLE11=Red Sails In The Sunset
TTITLE12=I Love You 1.000 Times
TTITLE13=Don't Hear, Speak, See No Evil
TTITLE14=Devri
TTITLE15=Alone In The Night
TTITLE16=I'll Be Home
TTITLE17=What Name Shall I Give You My Love
TTITLE18=Washed Ashore (On A Lonely Island In The Sea)
TTITLE19=If I Had A Love
TTITLE20=The Wonder Of You
TTITLE21=I Get The Sweetest Feeling
TTITLE22=Delilah
TTITLE23=Unchained Melody
EXTD=
EXTT0=
EXTT1=
EXTT2=
EXTT3=
EXTT4=
EXTT5=
EXTT6=
EXTT7=
EXTT8=
EXTT9=
EXTT10=
EXTT11=
EXTT12=
EXTT13=
EXTT14=
EXTT15=
EXTT16=
EXTT17=
EXTT18=
EXTT19=
EXTT20=
EXTT21=
EXTT22=
EXTT23=
PLAYORDER=
